Coordinates
version=1
nRows=9
nColumns=63
inDegrees=yes

Units are S.I. units (second, meters, Newtons, ...)
If the header above contains a line with 'inDegrees', this indicates whether rotational values are in degrees (yes) or radians (no).

endheader
time	pelvis_tilt	pelvis_list	pelvis_rotation	pelvis_tx	pelvis_ty	pelvis_tz	hip_flexion_r	hip_adduction_r	hip_rotation_r	knee_angle_r	knee_angle_r_beta	ankle_angle_r	subtalar_angle_r	mtp_angle_r	hip_flexion_l	hip_adduction_l	hip_rotation_l	knee_angle_l	knee_angle_l_beta	ankle_angle_l	subtalar_angle_l	mtp_angle_l	L5_S1_Flex_Ext	L5_S1_Lat_Bending	L5_S1_axial_rotation	L4_L5_Flex_Ext	L4_L5_Lat_Bending	L4_L5_axial_rotation	L3_L4_Flex_Ext	L3_L4_Lat_Bending	L3_L4_axial_rotation	L2_L3_Flex_Ext	L2_L3_Lat_Bending	L2_L3_axial_rotation	L1_L2_Flex_Ext	L1_L2_Lat_Bending	L1_L2_axial_rotation	L1_T12_Flex_Ext	L1_T12_Lat_Bending	L1_T12_axial_rotation	Abs_r3	Abs_r2	Abs_r1	Abs_t1	Abs_t2	neck_flexion	neck_bending	neck_rotation	arm_flex_r	arm_add_r	arm_rot_r	elbow_flex_r	pro_sup_r	wrist_flex_r	wrist_dev_r	arm_flex_l	arm_add_l	arm_rot_l	elbow_flex_l	pro_sup_l	wrist_flex_l	wrist_dev_l
      1.48148148	      5.52420701	     -3.88717159	     86.46582394	      0.46417771	      0.61037131	      0.62628352	      6.33724677	      3.70085954	      4.24476479	     18.75207305	      0.32728542	     29.37214399	    -12.61222776	      0.00000000	      4.71548662	     -2.92654118	     -4.11493366	     15.96663968	      0.27867043	     37.87370032	      0.49476138	      0.00000000	      0.05747903	      0.12844002	      0.48066667	      0.10674430	      0.17082523	      0.51070834	      0.09443229	      0.31228907	      0.51070834	      0.06569278	      0.31228907	      0.42058334	      0.05337502	      0.26191489	      0.39054167	      0.03284352	      0.19895359	      0.36050000	      0.41056695	      1.45293922	      2.67332382	      0.00000000	      0.00000000	     19.63366613	     -3.35853132	    -10.33879009	     15.69992297	      3.16051477	     52.72189055	     32.23152631	      1.36258837	    -19.86652430	     10.44563125	     16.78083805	      2.84831063	     75.97640920	     28.99614724	     48.19989370	     -6.13876277	      8.39873616
      1.50000000	      5.66083489	     -3.85431158	     86.77841737	      0.46409495	      0.60981436	      0.62655808	      6.60243195	      3.87785517	      3.90744277	     19.18552224	      0.33485053	     29.88033074	    -12.79256470	      0.00000000	      5.43995089	     -3.09213367	     -3.61791558	     17.29451954	      0.30184631	     38.93543109	      0.13148954	      0.00000000	      0.03312004	      0.14611225	      0.41027056	      0.06150722	      0.19432929	      0.43591247	      0.05441291	      0.35525731	      0.43591247	      0.03785289	      0.35525731	      0.35898674	      0.03075527	      0.29795209	      0.33334483	      0.01892479	      0.22632787	      0.30770292	      0.23657311	      1.65285094	      2.28180178	      0.00000000	      0.00000000	     17.92418798	     -3.23262369	    -10.16948983	     15.44741817	      3.33728031	     50.59425182	     32.71235273	      1.19863761	    -20.08778232	     11.29167772	     16.67622232	      2.69461461	     75.89116323	     29.12221118	     48.96778613	     -6.41515892	      7.91219061
      1.51851852	      5.79323388	     -3.86347999	     86.96861207	      0.46414859	      0.60921149	      0.62647840	      6.89036573	      4.05940463	      3.68779866	     19.53732939	      0.34099072	     30.58668573	    -12.91141789	      0.00000000	      6.14303184	     -3.23597989	     -3.11039019	     18.51563064	      0.32315872	     39.99709250	     -0.20094866	      0.00000000	      0.02282534	      0.16579398	      0.37762923	      0.04238893	      0.22050599	      0.40123105	      0.03749975	      0.40311147	      0.40123105	      0.02608708	      0.40311147	      0.33042557	      0.02119561	      0.33808707	      0.30682375	      0.01304240	      0.25681487	      0.28322192	      0.16303910	      1.87549461	      2.10026047	      0.00000000	      0.00000000	     16.16637244	     -2.98687957	     -9.97796940	     14.96875383	      3.55845257	     48.48113926	     33.05406871	      1.02064626	    -20.28731877	     12.42114707	     16.53541743	      2.58315904	     76.08877631	     29.20001936	     49.70750714	     -6.67688645	      7.41002383
      1.53703704	      5.94317175	     -3.74044365	     87.44417412	      0.46409985	      0.60885185	      0.62581138	      6.89390126	      4.24069614	      3.26970419	     19.65057956	      0.34296731	     31.40144348	    -12.87149483	      0.00000000	      6.59072107	     -3.33358463	     -2.06409653	     19.43632986	      0.33922795	     40.82397786	     -0.53574164	      0.00000000	      0.00479271	      0.18446457	      0.32098896	      0.00890054	      0.24533788	      0.34105077	      0.00787394	      0.44850716	      0.34105077	      0.00547759	      0.44850716	      0.28086534	      0.00445051	      0.37616016	      0.26080353	      0.00273855	      0.28573562	      0.24074172	      0.03423383	      2.08670014	      1.78524428	      0.00000000	      0.00000000	     14.35861246	     -2.70740898	     -9.68938795	     13.93287443	      4.18907045	     44.66973260	     33.19630417	      0.90179598	    -21.61971362	     14.29851842	     16.37779996	      2.47892309	     76.44663179	     29.20825754	     50.87087065	     -6.87576135	      6.96721667
      1.55555556	      6.11321593	     -3.55411810	     87.76886009	      0.46404417	      0.60867531	      0.62466525	      6.67175831	      4.44418851	      3.08321507	     19.47405754	      0.33988642	     32.19173799	    -12.74522191	      0.00000000	      6.76882709	     -3.43052120	     -1.21029828	     20.06914826	      0.35027272	     41.46648233	     -0.84052790	      0.00000000	     -0.01018036	      0.20899244	      0.28227697	     -0.01890595	      0.27795995	      0.29991928	     -0.01672532	      0.50814423	      0.29991928	     -0.01163514	      0.50814423	      0.24699235	     -0.00945348	      0.42617739	      0.22935004	     -0.00581706	      0.32372929	      0.21170773	     -0.07271731	      2.36416431	      1.56993983	      0.00000000	      0.00000000	     12.67896717	     -2.35182423	     -9.26365565	     12.90013401	      4.84801098	     41.54989497	     32.98182813	      0.79088688	    -23.30770126	     16.39755118	     16.17458382	      2.38853733	     76.76787762	     29.25936320	     51.84083624	     -6.92313077	      6.78691815
      1.57407407	      6.24671351	     -3.19872506	     87.84366912	      0.46408044	      0.60877674	      0.62361242	      6.32471229	      4.62708975	      3.27642552	     19.44842367	      0.33943903	     32.95895464	    -12.73159573	      0.00000000	      6.56832484	     -3.52665018	     -0.77380358	     20.41889908	      0.35637702	     41.90637997	     -0.79999915	      0.00000000	     -0.05801809	      0.22752692	      0.28473566	     -0.10774539	      0.30261081	      0.30253164	     -0.09531791	      0.55320896	      0.30253164	     -0.06630887	      0.55320896	      0.24914371	     -0.05387560	      0.46397290	      0.23134773	     -0.03315153	      0.35243921	      0.21355175	     -0.41441739	      2.57383008	      1.58361434	      0.00000000	      0.00000000	     11.56157755	     -2.09728886	     -9.10306823	     12.23417401	      4.98932758	     41.17616420	     32.90880446	      0.72368516	    -23.68819673	     16.98955902	     16.05358327	      2.24797095	     76.92072518	     29.47163849	     52.09172099	     -6.90185089	      6.73837765
      1.59259259	      6.59138637	     -3.00253706	     88.20512007	      0.46355215	      0.60886294	      0.62210120	      5.76731717	      4.98993728	      3.07302186	     18.71163648	      0.32657967	     33.09455436	    -12.79147114	      0.00000000	      6.44982502	     -3.79969265	     -0.05505557	     20.64272517	      0.36028352	     42.02358478	     -1.05615960	      0.00000000	     -0.07013144	      0.27371313	      0.25227209	     -0.13024110	      0.36403846	      0.26803910	     -0.11521894	      0.66550610	      0.26803910	     -0.08015322	      0.66550610	      0.22073808	     -0.06512406	      0.55815581	      0.20497108	     -0.04007311	      0.42398163	      0.18920407	     -0.50094187	      3.09629763	      1.40306171	      0.00000000	      0.00000000	     10.98151804	     -1.74664342	     -8.56063990	     11.77716630	      4.99518013	     40.87996304	     32.78424823	      0.74658084	    -24.69268668	     18.76309979	     15.98135708	      2.36392686	     77.33378692	     29.52297674	     52.94492490	     -7.10430690	      6.81074765
      1.61111111	      6.89851883	     -2.85635698	     88.66457018	      0.46272902	      0.60903236	      0.62081880	      5.29578949	      5.28745381	      2.69706283	     18.13609109	      0.31653450	     32.96083081	    -12.85692691	      0.00000000	      6.34377873	     -3.95914300	      1.08235792	     20.79564865	      0.36295254	     41.81011152	     -1.93739874	      0.00000000	     -0.08484216	      0.31110904	      0.21381651	     -0.15756038	      0.41377502	      0.22718004	     -0.13938719	      0.75643051	      0.22718004	     -0.09696611	      0.75643051	      0.18708944	     -0.07878443	      0.63441355	      0.17372591	     -0.04847881	      0.48190790	      0.16036238	     -0.60601909	      3.51932765	      1.18918326	      0.00000000	      0.00000000	     10.92019737	     -1.53843447	     -8.43787057	     11.89000281	      4.15447337	     44.07228711	     33.35300160	      0.79443015	    -24.16785206	     18.85577273	     15.90313903	      2.52725975	     77.22455916	     29.61189303	     53.27463620	     -7.18074118	      6.96270347
      1.62962963	      6.93873839	     -2.76397547	     88.87151944	      0.46268857	      0.60958151	      0.61940425	      4.86239307	      5.40353592	      2.85615046	     17.59590779	      0.30710653	     32.46648954	    -13.49728903	      0.00000000	      6.06049761	     -3.94865503	      1.54682222	     20.59832824	      0.35950865	     41.18802947	     -2.57823814	      0.00000000	     -0.09672971	      0.30547841	      0.22240506	     -0.17963675	      0.40628629	      0.23630538	     -0.15891725	      0.74274022	      0.23630538	     -0.11055239	      0.74274022	      0.19460443	     -0.08982321	      0.62293158	      0.18070411	     -0.05527136	      0.47318606	      0.16680380	     -0.69093067	      3.45563292	      1.23695023	      0.00000000	      0.00000000	     11.33234024	     -1.22407446	     -8.71124931	     12.02902708	      3.60676958	     46.74527675	     33.67810980	      0.83913233	    -22.80154716	     18.61051678	     15.75137226	      2.50902240	     76.68800697	     29.86808386	     53.39867539	     -7.08212026	      7.68169678
